<?xml version="1.0" encoding="utf-8"?>
<!-- Generator: Adobe Illustrator 17.0.0, SVG Export Plug-In . SVG Version: 6.00 Build 0)  -->
<!DOCTYPE svg PUBLIC "-//W3C//DTD SVG 1.1//EN" "http://www.w3.org/Graphics/SVG/1.1/DTD/svg11.dtd">
<svg version="1.1" id="Layer_1" xmlns="http://www.w3.org/2000/svg" xmlns:xlink="http://www.w3.org/1999/xlink" x="0px" y="0px"
	 width="256px" height="256px" viewBox="0 0 256 256" enable-background="new 0 0 256 256" xml:space="preserve">
<path fill="#928BA0" d="M255,234.266c0,11.45-9.283,20.734-20.734,20.734H21.735C10.283,255,1,245.716,1,234.266V21.735
	C1,10.283,10.283,1,21.735,1h212.531C245.717,1,255,10.283,255,21.735V234.266z"/>
<path fill="#FFFFFF" d="M213.495,101.65h-34.649V87.213c0-4.089,0.54-7.039,1.621-8.844c1.085-1.805,3.432-2.707,7.04-2.707h25.988
	V47.147h-31.763c-13.239,0-22.804,3.129-28.695,9.384c-5.901,6.26-8.846,15.521-8.846,27.793v17.326h-16.603V128h16.603v80.852
	h34.654V128h29.956C208.801,128,213.495,101.65,213.495,101.65z"/>
</svg>
