<svg xmlns="http://www.w3.org/2000/svg" width="253.333" height="246.667" viewBox="0 0 253.333 246.667"><g><circle fill="#926882" cx="123.889" cy="122.778" r="108.333"/><path fill="#9DBCB8" d="M238.563 124.778c.418 27.656-17.509 50.28-39.447 63.383-22.371 13.535-48.752 17.549-75.227 17.967-26.475-.418-52.856-4.431-75.227-17.967-21.938-13.103-39.866-35.728-39.447-63.383-.418-27.656 17.509-50.28 39.447-63.383 22.371-13.535 48.752-17.549 75.227-17.967 26.475.418 52.856 4.432 75.227 17.967 21.938 13.102 39.865 35.727 39.447 63.383z"/><path fill="none" d="M43.333 55.444h196.667v150.022h-196.667z"/><text transform="translate(43.333 128.803)"><tspan x="0" y="0" font-family="'HoboStd'" font-size="86" letter-spacing="-3">Lilac</tspan><tspan x="0" y="59.2" font-family="'HoboStd'" font-size="68">Dairy</tspan></text></g></svg>